<svg xmlns="http://www.w3.org/2000/svg" viewBox="0 0 64 64" width="64" height="64" role="img" aria-label="شعار شاورما إيلاك">
  <rect width="64" height="64" rx="14" fill="#17120F"/>
  <!-- ember glow -->
  <circle cx="32" cy="34" r="20" fill="#E8531E" opacity="0.22"/>
  <!-- spit rod -->
  <rect x="30.5" y="8" width="3" height="48" rx="1.5" fill="#C9A24B"/>
  <!-- shawarma cone -->
  <path d="M32 14 C 44 18, 46 30, 44 40 C 42 48, 36 52, 32 52 C 28 52, 22 48, 20 40 C 18 30, 20 18, 32 14 Z" fill="#B5651A"/>
  <path d="M32 14 C 44 18, 46 30, 44 40 C 42 48, 36 52, 32 52 Z" fill="#8A4912" opacity="0.55"/>
  <!-- char layers -->
  <path d="M22 24 H42 M21 32 H43 M22 40 H42 M24 47 H40" stroke="#3a230f" stroke-width="1.4" opacity="0.5" fill="none"/>
</svg>
